# File generated by ImageToStl.com - Free Image and 3D model conversion tools

o obj1
v -0.01125 -0.00525 0.00515
v -0.01125 -0.00525 -0.00515
v -0.01124677 -0.00532408 -0.00515
v -0.01124677 -0.00532408 0.00515
v -0.01123709 -0.0053976 -0.00515
v -0.01123709 -0.0053976 0.00515
v -0.01122104 -0.00547 -0.00515
v -0.01122104 -0.00547 0.00515
v -0.01119874 -0.00554072 -0.00515
v -0.01119874 -0.00554072 0.00515
v -0.01117036 -0.00560923 -0.00515
v -0.01117036 -0.00560923 0.00515
v -0.01113612 -0.005675 -0.00515
v -0.01113612 -0.005675 0.00515
v -0.01109628 -0.00573754 -0.00515
v -0.01109628 -0.00573754 0.00515
v -0.01105114 -0.00579637 -0.00515
v -0.01105114 -0.00579637 0.00515
v -0.01100104 -0.00585104 -0.00515
v -0.01100104 -0.00585104 0.00515
v -0.01094637 -0.00590114 -0.00515
v -0.01094637 -0.00590114 0.00515
v -0.01088754 -0.00594628 -0.00515
v -0.01088754 -0.00594628 0.00515
v -0.010825 -0.00598612 -0.00515
v -0.010825 -0.00598612 0.00515
v -0.01075923 -0.00602036 -0.00515
v -0.01075923 -0.00602036 0.00515
v -0.01069072 -0.00604874 -0.00515
v -0.01069072 -0.00604874 0.00515
v -0.01062 -0.00607104 -0.00515
v -0.01062 -0.00607104 0.00515
v -0.0105476 -0.00608709 -0.00515
v -0.0105476 -0.00608709 0.00515
v -0.01047408 -0.00609677 -0.00515
v -0.01047408 -0.00609677 0.00515
v -0.0104 -0.0061 -0.00515
v -0.0104 -0.0061 0.00515
v 0.0104 -0.0061 0.00515
v 0.0104 -0.0061 -0.00515
v 0.01047408 -0.00609677 -0.00515
v 0.01047408 -0.00609677 0.00515
v 0.0105476 -0.00608709 -0.00515
v 0.0105476 -0.00608709 0.00515
v 0.01062 -0.00607104 -0.00515
v 0.01062 -0.00607104 0.00515
v 0.01069072 -0.00604874 -0.00515
v 0.01069072 -0.00604874 0.00515
v 0.01075923 -0.00602036 -0.00515
v 0.01075923 -0.00602036 0.00515
v 0.010825 -0.00598612 -0.00515
v 0.010825 -0.00598612 0.00515
v 0.01088754 -0.00594628 -0.00515
v 0.01088754 -0.00594628 0.00515
v 0.01094637 -0.00590114 -0.00515
v 0.01094637 -0.00590114 0.00515
v 0.01100104 -0.00585104 -0.00515
v 0.01100104 -0.00585104 0.00515
v 0.01105114 -0.00579637 -0.00515
v 0.01105114 -0.00579637 0.00515
v 0.01109628 -0.00573754 -0.00515
v 0.01109628 -0.00573754 0.00515
v 0.01113612 -0.005675 -0.00515
v 0.01113612 -0.005675 0.00515
v 0.01117036 -0.00560923 -0.00515
v 0.01117036 -0.00560923 0.00515
v 0.01119874 -0.00554072 -0.00515
v 0.01119874 -0.00554072 0.00515
v 0.01122104 -0.00547 -0.00515
v 0.01122104 -0.00547 0.00515
v 0.01123709 -0.0053976 -0.00515
v 0.01123709 -0.0053976 0.00515
v 0.01124677 -0.00532408 -0.00515
v 0.01124677 -0.00532408 0.00515
v 0.01125 -0.00525 -0.00515
v 0.01125 -0.00525 0.00515
v 0.01125 0.00525 0.00515
v 0.01125 0.00525 -0.00515
v -0.01113612 0.005675 0.00515
v -0.01117036 0.00560923 0.00515
v -0.0104 0.0061 0.00515
v -0.01109628 0.00573754 0.00515
v -0.01119874 0.00554072 0.00515
v -0.01122104 0.00547 0.00515
v -0.01123709 0.0053976 0.00515
v 0.01123709 0.0053976 0.00515
v 0.01122104 0.00547 0.00515
v 0.0104 0.0061 0.00515
v -0.0105476 0.00608709 0.00515
v -0.01062 0.00607104 0.00515
v -0.01069072 0.00604874 0.00515
v -0.01094637 0.00590114 0.00515
v -0.01088754 0.00594628 0.00515
v -0.010825 0.00598612 0.00515
v -0.01100104 0.00585104 0.00515
v -0.01105114 0.00579637 0.00515
v -0.01124677 0.00532408 0.00515
v -0.01125 0.00525 0.00515
v 0.01062 0.00607104 0.00515
v 0.0105476 0.00608709 0.00515
v 0.01117036 0.00560923 0.00515
v -0.01047408 0.00609677 0.00515
v -0.01075923 0.00602036 0.00515
v 0.01124677 0.00532408 0.00515
v 0.01119874 0.00554072 0.00515
v 0.01047408 0.00609677 0.00515
v 0.01113612 0.005675 0.00515
v 0.01109628 0.00573754 0.00515
v 0.010825 0.00598612 0.00515
v 0.01088754 0.00594628 0.00515
v 0.01094637 0.00590114 0.00515
v 0.01075923 0.00602036 0.00515
v 0.01069072 0.00604874 0.00515
v 0.01105114 0.00579637 0.00515
v 0.01100104 0.00585104 0.00515
v -0.0104 0.0061 -0.00515
v 0.0104 0.0061 -0.00515
v -0.01124677 0.00532408 -0.00515
v -0.01125 0.00525 -0.00515
v -0.01123709 0.0053976 -0.00515
v -0.01122104 0.00547 -0.00515
v -0.01119874 0.00554072 -0.00515
v -0.01117036 0.00560923 -0.00515
v -0.01113612 0.005675 -0.00515
v -0.01109628 0.00573754 -0.00515
v -0.01069072 0.00604874 -0.00515
v -0.01062 0.00607104 -0.00515
v -0.0105476 0.00608709 -0.00515
v 0.01122104 0.00547 -0.00515
v 0.01119874 0.00554072 -0.00515
v 0.01117036 0.00560923 -0.00515
v -0.01105114 0.00579637 -0.00515
v -0.01100104 0.00585104 -0.00515
v -0.01094637 0.00590114 -0.00515
v -0.01088754 0.00594628 -0.00515
v -0.010825 0.00598612 -0.00515
v -0.01047408 0.00609677 -0.00515
v 0.01047408 0.00609677 -0.00515
v 0.0105476 0.00608709 -0.00515
v 0.01062 0.00607104 -0.00515
v 0.01123709 0.0053976 -0.00515
v 0.01124677 0.00532408 -0.00515
v -0.01075923 0.00602036 -0.00515
v 0.01069072 0.00604874 -0.00515
v 0.01075923 0.00602036 -0.00515
v 0.010825 0.00598612 -0.00515
v 0.01088754 0.00594628 -0.00515
v 0.01094637 0.00590114 -0.00515
v 0.01100104 0.00585104 -0.00515
v 0.01105114 0.00579637 -0.00515
v 0.01109628 0.00573754 -0.00515
v 0.01113612 0.005675 -0.00515
vn -0.99905 -0.04363 -0
vn -0.99145 -0.13052 0
vn -0.9763 -0.21644 0
vn -0.95372 -0.30071 0
vn -0.92388 -0.38269 0
vn -0.88702 -0.46174 0
vn -0.84339 -0.53731 0
vn -0.79336 -0.60876 0
vn -0.73728 -0.67559 0
vn -0.67559 -0.73728 0
vn -0.60876 -0.79336 0
vn -0.5373 -0.84339 0
vn -0.46175 -0.88701 0
vn -0.38269 -0.92388 0
vn -0.30071 -0.95372 0
vn -0.21644 -0.9763 0
vn -0.13052 -0.99145 0
vn -0.04362 -0.99905 0
vn -0 -1 -0
vn 0.04362 -0.99905 0
vn 0.13052 -0.99145 -0
vn 0.21644 -0.9763 -0
vn 0.30071 -0.95372 -0
vn 0.38269 -0.92388 -0
vn 0.46175 -0.88701 -0
vn 0.5373 -0.84339 -0
vn 0.60876 -0.79336 -0
vn 0.67559 -0.73728 -0
vn 0.73728 -0.67559 -0
vn 0.79336 -0.60876 -0
vn 0.84339 -0.53731 -0
vn 0.88702 -0.46174 -0
vn 0.92388 -0.38269 -0
vn 0.95372 -0.30071 -0
vn 0.9763 -0.21644 -0
vn 0.99145 -0.13052 -0
vn 0.99905 -0.04363 -0
vn 1 0 0
vn -0 -0 1
vn 0 0 -1
vn -1 0 0
vn -0.04362 0.99905 0
vn -0.13052 0.99145 -0
vn -0.21644 0.9763 -0
vn -0.30071 0.95372 -0
vn -0.38269 0.92388 -0
vn -0.46175 0.88701 -0
vn -0.5373 0.84339 -0
vn -0.60876 0.79336 -0
vn -0.67559 0.73728 -0
vn -0.73728 0.67559 -0
vn -0.79336 0.60876 -0
vn -0.84339 0.53731 -0
vn -0.88702 0.46174 -0
vn -0.92388 0.38269 -0
vn -0.95372 0.30071 -0
vn -0.9763 0.21644 -0
vn -0.99145 0.13052 -0
vn -0.99905 0.04363 -0
vn -0 1 0
vn 0.99905 0.04363 0
vn 0.99145 0.13052 -0
vn 0.9763 0.21644 -0
vn 0.95372 0.30071 -0
vn 0.92388 0.38269 -0
vn 0.88702 0.46174 -0
vn 0.84339 0.53731 -0
vn 0.79336 0.60876 -0
vn 0.73728 0.67559 -0
vn 0.67559 0.73728 -0
vn 0.60876 0.79336 -0
vn 0.5373 0.84339 -0
vn 0.46175 0.88701 -0
vn 0.38269 0.92388 -0
vn 0.30071 0.95372 -0
vn 0.21644 0.9763 -0
vn 0.13052 0.99145 -0
vn 0.04362 0.99905 -0
f 1//1 2//1 3//1
f 1//1 3//1 4//1
f 3//2 5//2 4//2
f 4//2 5//2 6//2
f 5//3 7//3 6//3
f 6//3 7//3 8//3
f 7//4 9//4 8//4
f 8//4 9//4 10//4
f 9//5 11//5 10//5
f 10//5 11//5 12//5
f 11//6 13//6 12//6
f 12//6 13//6 14//6
f 13//7 15//7 14//7
f 14//7 15//7 16//7
f 15//8 17//8 16//8
f 16//8 17//8 18//8
f 17//9 19//9 18//9
f 18//9 19//9 20//9
f 19//10 21//10 20//10
f 20//10 21//10 22//10
f 21//11 23//11 22//11
f 22//11 23//11 24//11
f 23//12 25//12 24//12
f 24//12 25//12 26//12
f 25//13 27//13 26//13
f 26//13 27//13 28//13
f 27//14 29//14 28//14
f 28//14 29//14 30//14
f 29//15 31//15 30//15
f 30//15 31//15 32//15
f 31//16 33//16 32//16
f 32//16 33//16 34//16
f 33//17 35//17 34//17
f 34//17 35//17 36//17
f 35//18 37//18 36//18
f 36//18 37//18 38//18
f 39//19 38//19 40//19
f 38//19 37//19 40//19
f 39//20 40//20 41//20
f 39//20 41//20 42//20
f 41//21 43//21 42//21
f 42//21 43//21 44//21
f 43//22 45//22 44//22
f 44//22 45//22 46//22
f 45//23 47//23 46//23
f 46//23 47//23 48//23
f 47//24 49//24 48//24
f 48//24 49//24 50//24
f 49//25 51//25 50//25
f 50//25 51//25 52//25
f 51//26 53//26 52//26
f 52//26 53//26 54//26
f 53//27 55//27 54//27
f 54//27 55//27 56//27
f 55//28 57//28 56//28
f 56//28 57//28 58//28
f 57//29 59//29 58//29
f 58//29 59//29 60//29
f 59//30 61//30 60//30
f 60//30 61//30 62//30
f 61//31 63//31 62//31
f 62//31 63//31 64//31
f 63//32 65//32 64//32
f 64//32 65//32 66//32
f 65//33 67//33 66//33
f 66//33 67//33 68//33
f 67//34 69//34 68//34
f 68//34 69//34 70//34
f 69//35 71//35 70//35
f 70//35 71//35 72//35
f 71//36 73//36 72//36
f 72//36 73//36 74//36
f 73//37 75//37 74//37
f 74//37 75//37 76//37
f 77//38 76//38 78//38
f 76//38 75//38 78//38
f 36//39 38//39 22//39
f 79//39 80//39 81//39
f 76//39 38//39 39//39
f 68//39 70//39 39//39
f 79//39 81//39 82//39
f 80//39 83//39 81//39
f 83//39 84//39 81//39
f 81//39 84//39 85//39
f 70//39 72//39 39//39
f 72//39 74//39 39//39
f 39//39 74//39 76//39
f 86//39 87//39 88//39
f 89//39 90//39 91//39
f 92//39 81//39 93//39
f 81//39 94//39 93//39
f 92//39 95//39 81//39
f 95//39 96//39 81//39
f 81//39 96//39 82//39
f 85//39 97//39 81//39
f 97//39 98//39 81//39
f 81//39 98//39 38//39
f 98//39 1//39 38//39
f 38//39 1//39 4//39
f 4//39 6//39 38//39
f 6//39 8//39 38//39
f 38//39 8//39 10//39
f 10//39 12//39 38//39
f 12//39 14//39 38//39
f 38//39 14//39 16//39
f 16//39 18//39 38//39
f 18//39 20//39 38//39
f 38//39 20//39 22//39
f 42//39 44//39 58//39
f 99//39 100//39 101//39
f 81//39 102//39 94//39
f 102//39 89//39 94//39
f 94//39 89//39 103//39
f 89//39 91//39 103//39
f 30//39 32//39 28//39
f 32//39 34//39 28//39
f 28//39 34//39 26//39
f 42//39 58//39 39//39
f 58//39 60//39 39//39
f 39//39 60//39 62//39
f 62//39 64//39 39//39
f 64//39 66//39 39//39
f 39//39 66//39 68//39
f 38//39 76//39 81//39
f 76//39 77//39 81//39
f 81//39 77//39 88//39
f 77//39 104//39 88//39
f 88//39 104//39 86//39
f 87//39 105//39 88//39
f 105//39 101//39 88//39
f 88//39 101//39 106//39
f 101//39 100//39 106//39
f 36//39 22//39 34//39
f 22//39 24//39 34//39
f 34//39 24//39 26//39
f 101//39 107//39 108//39
f 109//39 101//39 110//39
f 101//39 111//39 110//39
f 109//39 112//39 101//39
f 112//39 113//39 101//39
f 101//39 113//39 99//39
f 44//39 46//39 58//39
f 46//39 48//39 58//39
f 58//39 48//39 50//39
f 50//39 52//39 58//39
f 52//39 54//39 58//39
f 58//39 54//39 56//39
f 108//39 114//39 101//39
f 114//39 115//39 101//39
f 101//39 115//39 111//39
f 116//40 117//40 78//40
f 71//40 69//40 40//40
f 69//40 67//40 40//40
f 21//40 19//40 37//40
f 19//40 17//40 37//40
f 17//40 15//40 37//40
f 15//40 13//40 37//40
f 37//40 13//40 11//40
f 11//40 9//40 37//40
f 9//40 7//40 37//40
f 37//40 7//40 5//40
f 5//40 3//40 37//40
f 3//40 2//40 37//40
f 37//40 2//40 40//40
f 118//40 116//40 119//40
f 116//40 78//40 119//40
f 119//40 78//40 2//40
f 78//40 75//40 2//40
f 2//40 75//40 40//40
f 75//40 73//40 40//40
f 40//40 73//40 71//40
f 45//40 43//40 57//40
f 25//40 33//40 27//40
f 33//40 31//40 27//40
f 27//40 31//40 29//40
f 118//40 120//40 116//40
f 120//40 121//40 116//40
f 116//40 121//40 122//40
f 122//40 123//40 116//40
f 123//40 124//40 116//40
f 116//40 124//40 125//40
f 126//40 127//40 128//40
f 129//40 117//40 130//40
f 117//40 131//40 130//40
f 67//40 65//40 40//40
f 65//40 63//40 40//40
f 40//40 63//40 61//40
f 61//40 59//40 40//40
f 59//40 57//40 40//40
f 40//40 57//40 41//40
f 57//40 43//40 41//40
f 37//40 35//40 21//40
f 35//40 33//40 21//40
f 21//40 33//40 23//40
f 33//40 25//40 23//40
f 125//40 132//40 116//40
f 132//40 133//40 116//40
f 116//40 133//40 134//40
f 134//40 135//40 116//40
f 135//40 136//40 116//40
f 116//40 136//40 137//40
f 117//40 138//40 131//40
f 138//40 139//40 131//40
f 131//40 139//40 140//40
f 129//40 141//40 117//40
f 141//40 142//40 117//40
f 117//40 142//40 78//40
f 137//40 136//40 128//40
f 136//40 143//40 128//40
f 128//40 143//40 126//40
f 140//40 144//40 131//40
f 144//40 145//40 131//40
f 131//40 145//40 146//40
f 146//40 147//40 131//40
f 147//40 148//40 131//40
f 131//40 148//40 149//40
f 51//40 57//40 53//40
f 57//40 55//40 53//40
f 51//40 49//40 57//40
f 49//40 47//40 57//40
f 57//40 47//40 45//40
f 149//40 150//40 131//40
f 150//40 151//40 131//40
f 131//40 151//40 152//40
f 1//41 98//41 2//41
f 98//41 119//41 2//41
f 81//42 116//42 137//42
f 81//42 137//42 102//42
f 137//43 128//43 102//43
f 102//43 128//43 89//43
f 128//44 127//44 89//44
f 89//44 127//44 90//44
f 127//45 126//45 90//45
f 90//45 126//45 91//45
f 126//46 143//46 91//46
f 91//46 143//46 103//46
f 143//47 136//47 103//47
f 103//47 136//47 94//47
f 136//48 135//48 94//48
f 94//48 135//48 93//48
f 135//49 134//49 93//49
f 93//49 134//49 92//49
f 134//50 133//50 92//50
f 92//50 133//50 95//50
f 133//51 132//51 95//51
f 95//51 132//51 96//51
f 132//52 125//52 96//52
f 96//52 125//52 82//52
f 125//53 124//53 82//53
f 82//53 124//53 79//53
f 124//54 123//54 79//54
f 79//54 123//54 80//54
f 123//55 122//55 80//55
f 80//55 122//55 83//55
f 122//56 121//56 83//56
f 83//56 121//56 84//56
f 121//57 120//57 84//57
f 84//57 120//57 85//57
f 120//58 118//58 85//58
f 85//58 118//58 97//58
f 118//59 119//59 97//59
f 97//59 119//59 98//59
f 81//60 88//60 116//60
f 88//60 117//60 116//60
f 77//61 78//61 142//61
f 77//61 142//61 104//61
f 142//62 141//62 104//62
f 104//62 141//62 86//62
f 141//63 129//63 86//63
f 86//63 129//63 87//63
f 129//64 130//64 87//64
f 87//64 130//64 105//64
f 130//65 131//65 105//65
f 105//65 131//65 101//65
f 131//66 152//66 101//66
f 101//66 152//66 107//66
f 152//67 151//67 107//67
f 107//67 151//67 108//67
f 151//68 150//68 108//68
f 108//68 150//68 114//68
f 150//69 149//69 114//69
f 114//69 149//69 115//69
f 149//70 148//70 115//70
f 115//70 148//70 111//70
f 148//71 147//71 111//71
f 111//71 147//71 110//71
f 147//72 146//72 110//72
f 110//72 146//72 109//72
f 146//73 145//73 109//73
f 109//73 145//73 112//73
f 145//74 144//74 112//74
f 112//74 144//74 113//74
f 144//75 140//75 113//75
f 113//75 140//75 99//75
f 140//76 139//76 99//76
f 99//76 139//76 100//76
f 139//77 138//77 100//77
f 100//77 138//77 106//77
f 138//78 117//78 106//78
f 106//78 117//78 88//78
# Vertices: 152, normals: 78, texture coordinates: 0, faces: 300

